HIERARCHY
ROOT hip
{
	OFFSET 0.000000 0.000000 0.000000 
	CHANNELS 6 Xposition Yposition Zposition Xrotation Zrotation Yrotation
	JOINT abdomen
	{
		OFFSET 0.000000 3.402643 0.000000 
		CHANNELS 3 Xrotation Zrotation Yrotation
		JOINT chest
		{
			OFFSET 0.000000 8.438565 -0.680529 
			CHANNELS 3 Xrotation Zrotation Yrotation
			JOINT neck
			{
				OFFSET 0.000000 10.207942 -0.272212 
				CHANNELS 3 Xrotation Zrotation Yrotation
				JOINT head
				{
					OFFSET 0.000000 3.130431 0.000000 
					CHANNELS 3 Xrotation Zrotation Yrotation
					End Site
					{
						OFFSET 0.000000 3.130435 0.000000 
					}
				}
			}
			JOINT lCollar
			{
				OFFSET 3.470700 6.669187 -0.816635 
				CHANNELS 3 Yrotation Zrotation Xrotation
				JOINT lShldr
				{
					OFFSET 3.198488 0.000000 0.000000 
					CHANNELS 3 Zrotation Yrotation Xrotation
					JOINT lForeArm
					{
						OFFSET 10.139888 0.000000 0.000000 
						CHANNELS 3 Yrotation Zrotation Xrotation
						JOINT lHand
						{
							OFFSET 8.370511 0.000000 0.000000 
							CHANNELS 3 Zrotation Yrotation Xrotation
							End Site
							{
								OFFSET 4.083176 0.000000 0.000000 
							}
						}
					}
				}
			}
			JOINT rCollar
			{
				OFFSET -3.470700 6.669187 -0.816635 
				CHANNELS 3 Yrotation Zrotation Xrotation
				JOINT rShldr
				{
					OFFSET -3.198488 0.000000 0.000000 
					CHANNELS 3 Zrotation Yrotation Xrotation
					JOINT rForeArm
					{
						OFFSET -10.139888 0.000000 0.000000 
						CHANNELS 3 Yrotation Zrotation Xrotation
						JOINT rHand
						{
							OFFSET -8.370511 0.000000 0.000000 
							CHANNELS 3 Zrotation Yrotation Xrotation
							End Site
							{
								OFFSET -4.083176 0.000000 0.000000 
							}
						}
					}
				}
			}
		}
	}
	JOINT lThigh
	{
		OFFSET 5.308129 -1.633274 1.361059 
		CHANNELS 3 Xrotation Zrotation Yrotation
		JOINT lShin
		{
			OFFSET -2.041588 -20.007561 0.000000 
			CHANNELS 3 Xrotation Zrotation Yrotation
			JOINT lFoot
			{
				OFFSET 0.000000 -19.190928 -1.224953 
				CHANNELS 3 Xrotation Yrotation Zrotation
				End Site
				{
					OFFSET 0.000000 -2.449906 4.627600 
				}
			}
		}
	}
	JOINT rThigh
	{
		OFFSET -5.308129 -1.633274 1.361059 
		CHANNELS 3 Xrotation Zrotation Yrotation
		JOINT rShin
		{
			OFFSET 2.041588 -20.007561 0.000000 
			CHANNELS 3 Xrotation Zrotation Yrotation
			JOINT rFoot
			{
				OFFSET 0.000000 -19.190928 -1.224953 
				CHANNELS 3 Xrotation Yrotation Zrotation
				End Site
				{
					OFFSET 0.000000 -2.449906 4.627600 
				}
			}
		}
	}
}
MOTION
Frames: 8
Frame Time: 0.011111
19.015129 48.599445 -17.255836 -4.417262 -2.833911 -59.583519 40.051575 -5.817441 4.901505 -22.207157 5.007822 2.177111 -13.177698 3.269616 9.828260 26.513939 -11.693918 18.098421 9.969777 -14.785672 3.853935 -66.083908 -57.147095 83.123711 -86.254303 1.267557 30.033152 8.524705 12.647240 -58.167366 -4.049711 8.641859 2.072876 59.301231 37.153851 23.609642 90.504097 -6.177729 35.468731 -8.534408 -12.637552 55.111187 -22.762438 19.091051 -7.960789 37.841396 -4.826220 -5.840551 -13.354165 -7.265335 -4.934318 -22.084518 -22.912830 -7.972323 56.512100 3.124971 7.816994 -27.041122 -9.091694 -2.049963 
18.514219 48.752007 -17.386782 -3.888520 -2.910201 -59.341728 39.756924 -5.275375 5.635786 -22.198208 4.690017 2.290329 -12.790831 3.134553 9.685107 26.133526 -11.368073 17.894804 9.969777 -14.785672 3.853935 -65.335815 -56.325687 81.895226 -86.212379 1.256564 29.720383 8.524705 12.647240 -57.747448 -4.049711 8.641859 2.072876 59.065388 36.702400 22.637150 90.596786 -6.245827 35.520752 -8.534408 -12.637552 54.564312 -22.212471 19.899618 -8.418649 36.820919 -4.894240 -5.724226 -13.408629 -6.859987 -4.826466 -21.229509 -22.762243 -6.653170 52.788475 3.505921 7.465880 -26.259365 -10.086989 -2.218873 
18.028660 48.892353 -17.508017 -4.079054 -2.635072 -59.137794 39.670422 -5.520390 5.682857 -22.285784 4.832870 2.335175 -12.634138 2.897309 9.648467 26.018951 -11.084840 17.858362 9.969777 -14.785672 3.853935 -64.745857 -55.426735 80.442886 -86.171715 1.275236 29.434761 8.524705 12.647240 -57.268932 -4.049711 8.641859 2.072876 58.558510 36.269726 22.020203 90.771423 -6.365783 35.632729 -8.534408 -12.637552 54.271339 -21.277468 19.832794 -8.706333 35.779507 -4.962602 -5.604734 -13.483552 -6.379273 -4.690127 -20.456158 -23.609512 -5.156341 49.048389 3.859779 7.090198 -25.354143 -10.038958 -1.951713 
17.482954 48.976624 -17.690334 -4.089584 -2.402686 -59.017220 39.458233 -5.841282 5.530260 -22.137070 5.422424 2.331403 -13.062873 2.806422 9.707436 26.639090 -11.002336 17.900551 9.969777 -14.785672 3.853935 -64.389824 -54.571297 78.600403 -86.126389 1.322132 29.157299 8.524705 12.647240 -56.868546 -4.049711 8.641859 2.072876 57.852386 36.478672 21.998056 90.753365 -6.354355 35.623264 -8.534408 -12.637552 54.603374 -20.493429 20.123789 -8.733326 34.785591 -5.040850 -5.473006 -13.570567 -6.120938 -4.638286 -19.653124 -24.055656 -3.451730 45.378357 4.208782 6.690082 -23.994766 -10.980710 -1.882527 
16.909992 49.057129 -17.907114 -3.082234 -2.661658 -58.655403 39.018311 -4.888330 5.884596 -21.793005 5.738682 2.311716 -13.399817 2.925358 9.782454 27.084576 -11.259781 17.992426 9.969777 -14.785672 3.853935 -63.983116 -53.861668 76.600716 -86.062424 1.421019 28.826895 8.524705 12.647240 -56.634167 -4.049711 8.641859 2.072876 57.219482 36.948753 22.149857 90.622620 -6.264402 35.540367 -8.534408 -12.637552 54.954937 -20.453955 21.695635 -9.069470 33.833073 -5.083684 -5.371503 -13.506110 -6.200375 -4.664733 -18.404360 -23.198151 -1.933269 41.749733 4.511316 6.278524 -22.865231 -12.270434 -1.993522 
16.377131 49.125736 -18.098831 -1.959883 -3.093164 -58.102745 38.660801 -3.539683 6.582630 -21.548923 5.444736 2.316639 -13.178797 3.129308 9.750323 26.789740 -11.369555 17.967985 9.969777 -14.785672 3.853935 -63.323906 -53.310543 75.039581 -85.974518 1.562098 28.473726 8.524705 12.647240 -56.233776 -4.049711 8.641859 2.072876 56.864037 37.116493 21.906034 90.564217 -6.220808 35.509369 -8.534408 -12.637552 54.954937 -20.614260 23.348915 -9.798043 33.076664 -5.138195 -5.262048 -13.546342 -6.211274 -4.662372 -16.843624 -22.272346 -0.744069 38.219582 4.784822 5.870246 -21.370293 -13.618162 -1.938784 
15.857115 49.166775 -18.278330 -1.521013 -3.385787 -57.510632 38.589024 -2.868805 7.037292 -21.550388 5.064449 2.339586 -12.928978 3.102627 9.660593 26.687521 -10.627891 17.977379 9.969777 -14.785672 3.853935 -62.592590 -52.648254 73.670311 -85.867279 1.736496 28.117729 8.524705 12.647240 -55.628304 -4.049711 8.641859 2.072876 56.636169 37.006447 21.550173 90.632454 -6.269170 35.540710 -8.534408 -12.637552 55.150249 -20.347324 24.205809 -10.517381 32.448250 -5.181550 -5.198111 -13.878461 -5.982684 -4.632326 -15.240274 -22.220980 0.013240 34.908905 5.009455 5.445060 -19.080206 -14.409278 -1.430343 
15.339602 49.178993 -18.433710 -1.498356 -3.561534 -57.036961 38.700771 -2.583747 7.048288 -21.609606 4.967848 2.298853 -12.943589 3.318902 9.591118 26.986528 -10.599619 17.866547 9.969777 -14.785672 3.853935 -61.920280 -51.741024 71.694496 -85.762383 1.904854 27.850166 8.524705 12.647240 -55.247448 -4.049711 8.641859 2.072876 56.280983 36.978550 21.492165 90.796539 -6.384087 35.643745 -8.534408 -12.637552 55.589703 -19.754347 24.510586 -11.351060 31.911623 -5.206293 -5.118250 -14.304269 -5.341001 -4.464395 -13.708138 -22.691420 0.507863 31.992388 5.199812 5.104990 -17.235617 -14.331657 -0.878776 
